<?xml version="1.0" encoding="UTF-8" standalone="no"?>
<!-- Created with Inkscape (http://www.inkscape.org/) -->

<svg
   xmlns:dc="http://purl.org/dc/elements/1.1/"
   xmlns:cc="http://creativecommons.org/ns#"
   xmlns:rdf="http://www.w3.org/1999/02/22-rdf-syntax-ns#"
   xmlns:svg="http://www.w3.org/2000/svg"
   xmlns="http://www.w3.org/2000/svg"
   xmlns:sodipodi="http://sodipodi.sourceforge.net/DTD/sodipodi-0.dtd"
   xmlns:inkscape="http://www.inkscape.org/namespaces/inkscape"
   width="1024"
   height="512"
   viewBox="0 0 270.93333 135.46666"
   version="1.1"
   id="svg8"
   inkscape:export-filename="/Users/kierangale/github/TeamInception/Assets/Textures/forcefield0.png"
   inkscape:export-xdpi="192"
   inkscape:export-ydpi="192"
   inkscape:version="0.92.2 5c3e80d, 2017-08-06"
   sodipodi:docname="forcefieldSource.svg">
  <defs
     id="defs2" />
  <sodipodi:namedview
     id="base"
     pagecolor="#ffffff"
     bordercolor="#666666"
     borderopacity="1.0"
     inkscape:pageopacity="0.0"
     inkscape:pageshadow="2"
     inkscape:zoom="0.7"
     inkscape:cx="474.47359"
     inkscape:cy="225.09185"
     inkscape:document-units="px"
     inkscape:current-layer="layer4"
     showgrid="true"
     units="px"
     inkscape:snap-global="true"
     inkscape:measure-start="0,0"
     inkscape:measure-end="0,0"
     inkscape:window-width="1440"
     inkscape:window-height="855"
     inkscape:window-x="0"
     inkscape:window-y="1"
     inkscape:window-maximized="1">
    <inkscape:grid
       type="axonomgrid"
       id="grid815"
       units="px"
       empspacing="5"
       spacingy="2.6458333"
       color="#ffffff"
       opacity="0.1254902"
       empcolor="#ffffff"
       empopacity="0.25098039" />
  </sodipodi:namedview>
  <metadata
     id="metadata5">
    <rdf:RDF>
      <cc:Work
         rdf:about="">
        <dc:format>image/svg+xml</dc:format>
        <dc:type
           rdf:resource="http://purl.org/dc/dcmitype/StillImage" />
        <dc:title></dc:title>
      </cc:Work>
    </rdf:RDF>
  </metadata>
  <g
     inkscape:groupmode="layer"
     id="layer2"
     inkscape:label="bg"
     style="display:inline">
    <rect
       style="fill:#144689;fill-opacity:0.50980395;stroke:none;stroke-width:2.5;stroke-linecap:square;stroke-linejoin:miter;stroke-miterlimit:4;stroke-dasharray:none;stroke-opacity:1"
       id="rect4526"
       width="297.87665"
       height="145.52083"
       x="-11.456794"
       y="-3.4395859" />
  </g>
  <g
     inkscape:label="hex"
     inkscape:groupmode="layer"
     id="layer1"
     transform="translate(0,-161.53336)"
     style="display:inline">
    <path
       id="path4702"
       style="fill:none;fill-opacity:1;stroke:#58f3ff;stroke-width:0.26458332px;stroke-linecap:butt;stroke-linejoin:miter;stroke-opacity:0.70588237"
       d="m 263.50627,184.55211 v 13.22916 l 11.45679,6.61459 11.4568,-6.61459 v -13.22916 l -11.4568,-6.61459 z m -11.4568,99.21875 v 13.22916 l 11.4568,6.61459 11.45679,-6.61459 v -13.22916 l -11.45679,-6.61459 z m 11.45679,-19.84375 v 13.22916 l 11.4568,6.61459 11.4568,-6.61459 v -13.22916 l -11.4568,-6.61459 z m -11.45679,-19.84375 v 13.22916 l 11.4568,6.61459 11.45679,-6.61459 v -13.22916 l -11.45679,-6.61459 z m 11.4568,-19.84375 v 13.22916 l 11.45679,6.61459 11.4568,-6.61459 v -13.22916 l -11.4568,-6.61459 z m -11.4568,-19.84375 v 13.22916 l 11.4568,6.61459 11.45679,-6.61459 v -13.22916 l -11.45679,-6.61459 z m 11.4568,-19.84375 v 13.22916 l 11.45679,6.61459 11.4568,-6.61459 v -13.22916 l -11.4568,-6.61459 z m -11.4568,-19.84375 v 13.22916 l 11.4568,6.61459 11.45679,-6.61459 v -13.22916 l -11.45679,-6.61459 z m -22.91359,119.0625 v 13.22916 l 11.4568,6.61459 11.45679,-6.61459 v -13.22916 l -11.45679,-6.61459 z m 11.4568,-19.84375 v 13.22916 l 11.45679,6.61459 11.4568,-6.61459 v -13.22916 l -11.4568,-6.61459 z m -11.4568,-19.84375 v 13.22916 l 11.4568,6.61459 11.45679,-6.61459 v -13.22916 l -11.45679,-6.61459 z m 11.4568,-19.84375 v 13.22916 l 11.45679,6.61459 11.4568,-6.61459 v -13.22916 l -11.4568,-6.61459 z m -11.4568,-19.84375 v 13.22916 l 11.4568,6.61459 11.45679,-6.61459 v -13.22916 l -11.45679,-6.61459 z m 11.4568,-19.84375 v 13.22916 l 11.45679,6.61459 11.4568,-6.61459 v -13.22916 l -11.4568,-6.61459 z m -11.4568,-19.84375 v 13.22916 l 11.4568,6.61459 11.45679,-6.61459 v -13.22916 l -11.45679,-6.61459 z m -22.91359,119.0625 v 13.22916 l 11.4568,6.61459 11.45679,-6.61459 v -13.22916 l -11.45679,-6.61459 z m 11.45679,-19.84375 v 13.22916 l 11.4568,6.61459 11.4568,-6.61459 v -13.22916 l -11.4568,-6.61459 z m -11.45679,-19.84375 v 13.22916 l 11.4568,6.61459 11.45679,-6.61459 v -13.22916 l -11.45679,-6.61459 z m 11.4568,-19.84375 v 13.22916 l 11.45679,6.61459 11.4568,-6.61459 v -13.22916 l -11.4568,-6.61459 z m -11.4568,-19.84375 v 13.22916 l 11.4568,6.61459 11.45679,-6.61459 v -13.22916 l -11.45679,-6.61459 z m 11.4568,-19.84375 v 13.22916 l 11.45679,6.61459 11.4568,-6.61459 v -13.22916 l -11.4568,-6.61459 z m -11.4568,-19.84375 v 13.22916 l 11.4568,6.61459 11.45679,-6.61459 v -13.22916 l -11.45679,-6.61459 z m -22.91359,119.0625 v 13.22916 l 11.4568,6.61459 11.45679,-6.61459 v -13.22916 l -11.45679,-6.61459 z m 11.4568,-19.84375 v 13.22916 l 11.45679,6.61459 11.4568,-6.61459 v -13.22916 l -11.4568,-6.61459 z m -11.4568,-19.84375 v 13.22916 l 11.4568,6.61459 11.45679,-6.61459 v -13.22916 l -11.45679,-6.61459 z m 11.4568,-19.84375 v 13.22916 l 11.45679,6.61459 11.4568,-6.61459 v -13.22916 l -11.4568,-6.61459 z m -11.4568,-19.84375 v 13.22916 l 11.4568,6.61459 11.45679,-6.61459 v -13.22916 l -11.45679,-6.61459 z m 11.4568,-19.84375 v 13.22916 l 11.45679,6.61459 11.4568,-6.61459 v -13.22916 l -11.4568,-6.61459 z m -11.4568,-19.84375 v 13.22916 l 11.4568,6.61459 11.45679,-6.61459 v -13.22916 l -11.45679,-6.61459 z m -22.91359,119.0625 v 13.22916 l 11.4568,6.61459 11.45679,-6.61459 v -13.22916 l -11.45679,-6.61459 z m 11.4568,-19.84375 v 13.22916 l 11.45679,6.61459 11.4568,-6.61459 v -13.22916 l -11.4568,-6.61459 z m -11.4568,-19.84375 v 13.22916 l 11.4568,6.61459 11.45679,-6.61459 v -13.22916 l -11.45679,-6.61459 z m 11.4568,-19.84375 v 13.22916 l 11.45679,6.61459 11.4568,-6.61459 v -13.22916 l -11.4568,-6.61459 z m -11.45679,-19.84375 v 13.22916 l 11.45679,6.61459 11.45679,-6.61459 v -13.22916 l -11.45679,-6.61459 z m 11.45679,-19.84375 v 13.22916 l 11.45679,6.61459 11.4568,-6.61459 v -13.22916 l -11.4568,-6.61459 z m -11.45679,-19.84375 v 13.22916 l 11.45679,6.61459 11.45679,-6.61459 v -13.22916 l -11.45679,-6.61459 z m -22.91359,119.0625 v 13.22916 l 11.45679,6.61459 11.4568,-6.61459 v -13.22916 l -11.4568,-6.61459 z m 11.45679,-19.84375 v 13.22916 l 11.4568,6.61459 11.45679,-6.61459 v -13.22916 l -11.45679,-6.61459 z m -11.45679,-19.84375 v 13.22916 l 11.45679,6.61459 11.4568,-6.61459 v -13.22916 l -11.4568,-6.61459 z m 11.45679,-19.84375 v 13.22916 l 11.4568,6.61459 11.45679,-6.61459 v -13.22916 l -11.45679,-6.61459 z m -11.45679,-19.84375 v 13.22916 l 11.45679,6.61459 11.4568,-6.61459 v -13.22916 l -11.4568,-6.61459 z m 11.45679,-19.84375 v 13.22916 l 11.4568,6.61459 11.45679,-6.61459 v -13.22916 l -11.45679,-6.61459 z m -11.45679,-19.84375 v 13.22916 l 11.45679,6.61459 11.4568,-6.61459 v -13.22916 l -11.4568,-6.61459 z m -11.45679,19.84375 v 13.22916 l 11.45679,6.61459 11.4568,-6.61459 v -13.22916 l -11.4568,-6.61459 z m -11.4568,99.21875 v 13.22916 l 11.4568,6.61459 11.45679,-6.61459 v -13.22916 l -11.45679,-6.61459 z m 11.45679,-19.84375 v 13.22916 l 11.4568,6.61459 11.4568,-6.61459 v -13.22916 l -11.4568,-6.61459 z m -11.45679,-19.84375 v 13.22916 l 11.4568,6.61459 11.45679,-6.61459 v -13.22916 l -11.45679,-6.61459 z m 11.4568,-19.84375 v 13.22916 l 11.45679,6.61459 11.4568,-6.61459 v -13.22916 l -11.4568,-6.61459 z m -11.4568,-19.84375 v 13.22916 l 11.4568,6.61459 11.45679,-6.61459 v -13.22916 l -11.45679,-6.61459 z m 11.4568,-19.84375 v 13.22916 l 11.45679,6.61459 11.4568,-6.61459 v -13.22916 l -11.4568,-6.61459 z m -11.4568,-19.84375 v 13.22916 l 11.4568,6.61459 11.45679,-6.61459 v -13.22916 l -11.45679,-6.61459 z m -22.913589,119.0625 v 13.22916 l 11.456799,6.61459 11.45679,-6.61459 v -13.22916 l -11.45679,-6.61459 z m 11.456799,-19.84375 v 13.22916 l 11.45679,6.61459 11.4568,-6.61459 v -13.22916 l -11.4568,-6.61459 z M 91.654352,244.08336 v 13.22916 l 11.456798,6.61459 11.45679,-6.61459 v -13.22916 l -11.45679,-6.61459 z m 11.456798,-19.84375 v 13.22916 l 11.45679,6.61459 11.4568,-6.61459 v -13.22916 l -11.4568,-6.61459 z M 91.654353,204.39586 v 13.22916 l 11.456797,6.61459 11.45679,-6.61459 v -13.22916 l -11.45679,-6.61459 z m 11.456797,-19.84375 v 13.22916 l 11.45679,6.61459 11.4568,-6.61459 v -13.22916 l -11.4568,-6.61459 z M 91.654353,164.70836 v 13.22916 l 11.456797,6.61459 11.45679,-6.61459 v -13.22916 l -11.45679,-6.61459 z m -22.91359,119.0625 v 13.22916 l 11.456796,6.61459 11.456795,-6.61459 v -13.22916 l -11.456795,-6.61459 z m 11.456794,-19.84375 v 13.22916 l 11.456796,6.61459 11.456797,-6.61459 V 263.92711 L 91.654353,257.31252 Z M 68.740764,244.08336 v 13.22916 l 11.456795,6.61459 11.456795,-6.61459 v -13.22916 l -11.456795,-6.61459 z m 11.456794,-19.84375 v 13.22916 l 11.456795,6.61459 11.456797,-6.61459 V 224.23961 L 91.654353,217.62502 Z M 68.740765,204.39586 v 13.22916 l 11.456794,6.61459 11.456795,-6.61459 v -13.22916 l -11.456795,-6.61459 z m 11.456794,-19.84375 v 13.22916 l 11.456794,6.61459 11.456797,-6.61459 V 184.55211 L 91.654353,177.93752 Z M 68.740765,164.70836 v 13.22916 l 11.456794,6.61459 11.456795,-6.61459 v -13.22916 l -11.456795,-6.61459 z m -22.91359,119.0625 v 13.22916 l 11.456796,6.61459 11.456795,-6.61459 v -13.22916 l -11.456795,-6.61459 z m 11.456794,-19.84375 v 13.22916 l 11.456796,6.61459 11.456795,-6.61459 V 263.92711 L 68.740765,257.31252 Z M 45.827176,244.08336 v 13.22916 l 11.456795,6.61459 11.456795,-6.61459 V 244.08336 L 57.283971,237.46877 Z M 57.28397,224.23961 v 13.22916 l 11.456795,6.61459 11.456795,-6.61459 V 224.23961 L 68.740765,217.62502 Z M 45.827177,204.39586 v 13.22916 l 11.456794,6.61459 11.456795,-6.61459 v -13.22916 l -11.456795,-6.61459 z m 11.456794,-19.84375 v 13.22916 l 11.456794,6.61459 11.456795,-6.61459 V 184.55211 L 68.740765,177.93752 Z M 45.827177,164.70836 v 13.22916 l 11.456794,6.61459 11.456795,-6.61459 v -13.22916 l -11.456795,-6.61459 z m -22.913591,119.0625 v 13.22916 l 11.456796,6.61459 11.456795,-6.61459 V 283.77086 L 34.370382,277.15627 Z M 34.37038,263.92711 v 13.22916 l 11.456796,6.61459 11.456795,-6.61459 V 263.92711 L 45.827176,257.31252 Z M 22.913587,244.08336 v 13.22916 l 11.456795,6.61459 11.456795,-6.61459 v -13.22916 l -11.456795,-6.61459 z m 11.456794,-19.84375 v 13.22916 l 11.456795,6.61459 11.456795,-6.61459 V 224.23961 L 45.827176,217.62502 Z M 22.913588,204.39586 v 13.22916 l 11.456794,6.61459 11.456795,-6.61459 v -13.22916 l -11.456795,-6.61459 z m 11.456794,-19.84375 v 13.22916 l 11.456794,6.61459 11.456795,-6.61459 V 184.55211 L 45.827176,177.93752 Z M 22.913588,164.70836 v 13.22916 l 11.456794,6.61459 11.456795,-6.61459 V 164.70836 L 34.370382,158.09377 Z M -2.4802119e-6,283.77086 v 13.22916 L 11.456794,303.61461 22.913589,297.00002 V 283.77086 L 11.456794,277.15627 Z M 11.456792,263.92711 v 13.22916 l 11.456796,6.61459 11.456795,-6.61459 V 263.92711 L 22.913588,257.31252 Z M -1.4802119e-6,244.08336 v 13.22916 L 11.456794,263.92711 22.913589,257.31252 V 244.08336 L 11.456794,237.46877 Z M 11.456793,224.23961 v 13.22916 l 11.456795,6.61459 11.456795,-6.61459 V 224.23961 L 22.913588,217.62502 Z M -4.8021186e-7,204.39586 v 13.22916 L 11.456794,224.23961 22.913589,217.62502 V 204.39586 L 11.456794,197.78127 Z M 11.456794,184.55211 v 13.22916 l 11.456794,6.61459 11.456795,-6.61459 V 184.55211 L 22.913588,177.93752 Z M 0,164.70836 v 13.22916 l 11.456794,6.61459 11.456795,-6.61459 v -13.22916 l -11.456795,-6.61459 z"
       inkscape:connector-curvature="0" />
  </g>
  <g
     inkscape:groupmode="layer"
     id="layer3"
     inkscape:label="bighex"
     style="display:inline">
    <path
       id="path4731"
       style="fill:none;stroke:#5ecafa;stroke-width:1.99999988;stroke-linecap:butt;stroke-linejoin:miter;stroke-miterlimit:4;stroke-dasharray:none;stroke-opacity:0.90196079"
       d="M -57.283968,-3.4395855 -22.913586,-23.283335 11.456799,-3.4395855 V 36.247925 l -34.370385,19.84375 -34.370382,-19.84375 z M 217.67908,115.62291 252.04947,95.779165 286.41986,115.62291 v 39.68751 l -34.37039,19.84375 -34.37039,-19.84375 z m -68.74076,0 34.37039,-19.843745 34.37039,19.843745 v 39.68751 l -34.37039,19.84375 -34.37039,-19.84375 z m -68.740762,0 34.370382,-19.843745 34.37039,19.843745 v 39.68751 l -34.37039,19.84375 -34.370382,-19.84375 z m -68.740758,0 34.37038,-19.843745 34.37039,19.843745 v 39.68751 L 45.82718,175.15417 11.4568,155.31042 Z m -34.370383,-59.531245 34.37038,-19.84375 34.37039,19.84375 v 39.68751 l -34.37039,19.843745 -34.37038,-19.843745 z m 68.740766,0 34.37038,-19.84375 34.370387,19.84375 v 39.68751 L 80.197563,115.62292 45.827183,95.779175 Z m 68.740767,0 34.37038,-19.84375 34.37039,19.84375 v 39.68751 L 148.93833,115.62292 114.56795,95.779175 Z m 68.74076,0 34.37038,-19.84375 34.37039,19.84375 v 39.68751 L 217.67909,115.62292 183.30871,95.779175 Z m 68.74077,0 34.37038,-19.84375 34.37039,19.84375 v 39.68751 L 286.41986,115.62292 252.04948,95.779175 Z M 217.67909,-3.4395855 252.04947,-23.283335 286.41986,-3.4395855 V 36.247925 l -34.37039,19.84375 -34.37038,-19.84375 z m -68.74077,0 34.37038,-19.8437495 34.37039,19.8437495 V 36.247925 l -34.37039,19.84375 -34.37038,-19.84375 z m -68.740759,0 34.370379,-19.8437495 34.37039,19.8437495 V 36.247925 l -34.37039,19.84375 -34.370379,-19.84375 z m -68.740765,0 34.370382,-19.8437495 34.370385,19.8437495 V 36.247925 L 45.827178,56.091675 11.456796,36.247925 Z"
       inkscape:connector-curvature="0" />
  </g>
  <g
     inkscape:groupmode="layer"
     id="layer4"
     inkscape:label="icon">
    <path
       style="fill:#a9e3fc;fill-opacity:0.82352942;stroke:#144689;stroke-width:1.43183708;stroke-linecap:square;stroke-linejoin:miter;stroke-miterlimit:4;stroke-dasharray:none;stroke-opacity:1"
       d="m 31.956627,60.792922 c -4.635893,2.668708 -6.219557,8.549212 -3.550849,13.185105 l 0.201296,0.349677 c 0.105992,-0.07687 0.21671,-0.149719 0.332817,-0.216557 L 89.271276,39.380645 c 0.0163,-0.0094 0.0329,-0.01637 0.0493,-0.02536 l -0.19179,-0.333168 c -2.668685,-4.635895 -8.549194,-6.219556 -13.185081,-3.55085 z m 0.323618,19.915554 7.876251,13.682053 c 2.668709,4.63591 8.549214,6.219571 13.185106,3.55086 l 43.987026,-25.32167 c 4.635882,-2.668705 6.219572,-8.549212 3.550862,-13.185106 L 93.012746,45.76909 c -0.016,0.0095 -0.0305,0.02058 -0.0468,0.02994 l -60.33126,34.730454 c -0.116108,0.06684 -0.234675,0.126039 -0.354406,0.179051 z"
       id="rect4754"
       inkscape:connector-curvature="0" />
    <text
       xml:space="preserve"
       style="font-style:normal;font-weight:normal;font-size:5.64444447px;line-height:1.25;font-family:sans-serif;letter-spacing:0px;word-spacing:0px;fill:#a9e3fc;fill-opacity:0.82352941;stroke:#144689;stroke-width:1.58749998;stroke-miterlimit:4;stroke-dasharray:none;stroke-opacity:1"
       x="113.77083"
       y="85.195839"
       id="text4778"><tspan
         sodipodi:role="line"
         id="tspan4776"
         x="113.77083"
         y="85.195839"
         style="font-size:56.44444275px;fill:#a9e3fc;fill-opacity:0.82352941;stroke:#144689;stroke-width:1.58749998;stroke-miterlimit:4;stroke-dasharray:none;stroke-opacity:1">0/10</tspan></text>
  </g>
</svg>
